<svg width="16" height="15" viewBox="0 0 16 15" fill="none" xmlns="http://www.w3.org/2000/svg">
<path d="M15.3125 2.5C15.5312 2.5 15.75 2.30859 15.75 2.0625V1.1875C15.75 0.96875 15.5312 0.75 15.3125 0.75H0.4375C0.191406 0.75 0 0.96875 0 1.1875V2.0625C0 2.30859 0.191406 2.5 0.4375 2.5H0.847656V13H0.4375C0.191406 13 0 13.2188 0 13.4375V14.3125C0 14.5586 0.191406 14.75 0.4375 14.75H7V12.5625C7 12.3438 7.19141 12.125 7.4375 12.125H8.3125C8.53125 12.125 8.75 12.3438 8.75 12.5625V14.75H15.3125C15.5312 14.75 15.75 14.5586 15.75 14.3125V13.4375C15.75 13.2188 15.5312 13 15.3125 13H14.875V2.5H15.3125ZM7 3.73047C7 3.56641 7.16406 3.375 7.32812 3.375H8.39453C8.55859 3.375 8.75 3.56641 8.75 3.73047V4.79688C8.75 4.96094 8.55859 5.125 8.39453 5.125H7.32812C7.16406 5.125 7 4.96094 7 4.79688V3.73047ZM7 6.35547C7 6.19141 7.16406 6 7.32812 6H8.39453C8.55859 6 8.75 6.19141 8.75 6.35547V7.42188C8.75 7.58594 8.55859 7.75 8.39453 7.75H7.32812C7.16406 7.75 7 7.58594 7 7.42188V6.35547ZM3.5 3.73047C3.5 3.56641 3.66406 3.375 3.82812 3.375H4.89453C5.05859 3.375 5.25 3.56641 5.25 3.73047V4.79688C5.25 4.96094 5.05859 5.125 4.89453 5.125H3.82812C3.66406 5.125 3.5 4.96094 3.5 4.79688V3.73047ZM4.89453 7.75H3.82812C3.66406 7.75 3.5 7.58594 3.5 7.42188V6.35547C3.5 6.19141 3.66406 6 3.82812 6H4.89453C5.05859 6 5.25 6.19141 5.25 6.35547V7.42188C5.25 7.58594 5.05859 7.75 4.89453 7.75ZM5.25 11.25C5.25 9.80078 6.39844 8.625 7.875 8.625C9.32422 8.625 10.5 9.80078 10.5 11.25H5.25ZM12.25 7.42188C12.25 7.58594 12.0586 7.75 11.8945 7.75H10.8281C10.6641 7.75 10.5 7.58594 10.5 7.42188V6.35547C10.5 6.19141 10.6641 6 10.8281 6H11.8945C12.0586 6 12.25 6.19141 12.25 6.35547V7.42188ZM12.25 4.79688C12.25 4.96094 12.0586 5.125 11.8945 5.125H10.8281C10.6641 5.125 10.5 4.96094 10.5 4.79688V3.73047C10.5 3.56641 10.6641 3.375 10.8281 3.375H11.8945C12.0586 3.375 12.25 3.56641 12.25 3.73047V4.79688Z" fill="#FF4B96"/>
</svg>
