<svg width="16" height="17" viewBox="0 0 16 17" fill="none" xmlns="http://www.w3.org/2000/svg">
<path d="M14.625 6.5625H9.5625V1.5C9.5625 0.902344 9.03516 0.375 8.4375 0.375H7.3125C6.67969 0.375 6.1875 0.902344 6.1875 1.5V6.5625H1.125C0.492188 6.5625 0 7.08984 0 7.6875V8.8125C0 9.44531 0.492188 9.9375 1.125 9.9375H6.1875V15C6.1875 15.6328 6.67969 16.125 7.3125 16.125H8.4375C9.03516 16.125 9.5625 15.6328 9.5625 15V9.9375H14.625C15.2227 9.9375 15.75 9.44531 15.75 8.8125V7.6875C15.75 7.08984 15.2227 6.5625 14.625 6.5625Z" fill="#FF4B96"/>
</svg>
