<svg width="21" height="24" viewBox="0 0 21 24" fill="none" xmlns="http://www.w3.org/2000/svg">
<path d="M15 21H7.125C5.67188 21 4.5 19.8281 4.5 18.375V4.5H1.125C0.46875 4.5 0 5.01562 0 5.625V22.875C0 23.5312 0.46875 24 1.125 24H13.875C14.4844 24 15 23.5312 15 22.875V21ZM15 4.875V0H7.125C6.46875 0 6 0.515625 6 1.125V18.375C6 19.0312 6.46875 19.5 7.125 19.5H19.875C20.4844 19.5 21 19.0312 21 18.375V6H16.125C15.4688 6 15 5.53125 15 4.875ZM20.625 3.42188L17.5781 0.375C17.3438 0.140625 17.0625 0 16.7812 0H16.5V4.5H21V4.21875C21 3.9375 20.8594 3.65625 20.625 3.42188Z" fill="#FF4B96"/>
</svg>
