<svg width="17" height="13" viewBox="0 0 17 13" fill="none" xmlns="http://www.w3.org/2000/svg">
<path d="M8.65625 3.82422L3.625 7.98047V12.4375C3.625 12.6836 3.81641 12.875 4.0625 12.875H7.125C7.34375 12.875 7.53516 12.6836 7.53516 12.4375V9.8125C7.53516 9.59375 7.75391 9.375 7.97266 9.375H9.72266C9.96875 9.375 10.1602 9.59375 10.1602 9.8125V12.4375C10.1602 12.6836 10.3789 12.875 10.5977 12.875H13.6875C13.9062 12.875 14.125 12.6836 14.125 12.4375V7.95312L9.06641 3.82422C9.01172 3.76953 8.92969 3.74219 8.875 3.74219C8.79297 3.74219 8.71094 3.76953 8.65625 3.82422ZM16.6133 6.64062L14.3438 4.75391V0.980469C14.3438 0.789062 14.1797 0.652344 14.0156 0.652344H12.4844C12.293 0.652344 12.1562 0.789062 12.1562 0.980469V2.94922L9.69531 0.925781C9.47656 0.761719 9.17578 0.652344 8.875 0.652344C8.54688 0.652344 8.24609 0.761719 8.02734 0.925781L1.10938 6.64062C1.02734 6.69531 0.972656 6.80469 0.972656 6.88672C0.972656 6.96875 1.02734 7.05078 1.05469 7.10547L1.76562 7.95312C1.82031 8.03516 1.90234 8.0625 2.01172 8.0625C2.09375 8.0625 2.17578 8.03516 2.23047 7.98047L8.65625 2.70312C8.71094 2.64844 8.79297 2.62109 8.875 2.62109C8.92969 2.62109 9.01172 2.64844 9.06641 2.70312L15.4922 7.98047C15.5469 8.03516 15.6289 8.0625 15.7109 8.0625C15.8203 8.0625 15.9023 8.03516 15.957 7.95312L16.668 7.10547C16.7227 7.05078 16.75 6.96875 16.75 6.88672C16.75 6.80469 16.6953 6.69531 16.6133 6.64062Z" fill="#FF4B96"/>
</svg>
