        <svg
          width="25"
          height="18"
          viewBox="0 0 25 18"
          fill="none"
          xmlns="http://www.w3.org/2000/svg"
        >
          <path
            d="M24.0312 5.95312C22.9531 6.79688 21.5938 7.82812 16.8125 11.2969C15.875 12 14.1406 13.5469 12.5 13.5469C10.8125 13.5469 9.125 12 8.14062 11.2969C3.35938 7.82812 2 6.79688 0.921875 5.95312C0.734375 5.8125 0.5 5.95312 0.5 6.1875V15.75C0.5 17.0156 1.48438 18 2.75 18H22.25C23.4688 18 24.5 17.0156 24.5 15.75V6.1875C24.5 5.95312 24.2188 5.8125 24.0312 5.95312ZM12.5 12C13.5781 12.0469 15.125 10.6406 15.9219 10.0781C22.1562 5.57812 22.625 5.15625 24.0312 4.03125C24.3125 3.84375 24.5 3.51562 24.5 3.14062V2.25C24.5 1.03125 23.4688 0 22.25 0H2.75C1.48438 0 0.5 1.03125 0.5 2.25V3.14062C0.5 3.51562 0.640625 3.84375 0.921875 4.03125C2.32812 5.15625 2.79688 5.57812 9.03125 10.0781C9.82812 10.6406 11.375 12.0469 12.5 12Z"
            fill="#FF4B96"
          />
        </svg>