<svg width="21" height="24" viewBox="0 0 21 24" fill="none" xmlns="http://www.w3.org/2000/svg">
<path d="M20.4375 22.5H19.5V1.125C19.5 0.515625 18.9844 0 18.375 0H2.625C1.96875 0 1.5 0.515625 1.5 1.125V22.5H0.5625C0.234375 22.5 0 22.7812 0 23.0625V24H21V23.0625C21 22.7812 20.7188 22.5 20.4375 22.5ZM6 3.5625C6 3.28125 6.23438 3 6.5625 3H8.4375C8.71875 3 9 3.28125 9 3.5625V5.4375C9 5.76562 8.71875 6 8.4375 6H6.5625C6.23438 6 6 5.76562 6 5.4375V3.5625ZM6 8.0625C6 7.78125 6.23438 7.5 6.5625 7.5H8.4375C8.71875 7.5 9 7.78125 9 8.0625V9.9375C9 10.2656 8.71875 10.5 8.4375 10.5H6.5625C6.23438 10.5 6 10.2656 6 9.9375V8.0625ZM8.4375 15H6.5625C6.23438 15 6 14.7656 6 14.4375V12.5625C6 12.2812 6.23438 12 6.5625 12H8.4375C8.71875 12 9 12.2812 9 12.5625V14.4375C9 14.7656 8.71875 15 8.4375 15ZM12 22.5H9V18.5625C9 18.2812 9.23438 18 9.5625 18H11.4375C11.7188 18 12 18.2812 12 18.5625V22.5ZM15 14.4375C15 14.7656 14.7188 15 14.4375 15H12.5625C12.2344 15 12 14.7656 12 14.4375V12.5625C12 12.2812 12.2344 12 12.5625 12H14.4375C14.7188 12 15 12.2812 15 12.5625V14.4375ZM15 9.9375C15 10.2656 14.7188 10.5 14.4375 10.5H12.5625C12.2344 10.5 12 10.2656 12 9.9375V8.0625C12 7.78125 12.2344 7.5 12.5625 7.5H14.4375C14.7188 7.5 15 7.78125 15 8.0625V9.9375ZM15 5.4375C15 5.76562 14.7188 6 14.4375 6H12.5625C12.2344 6 12 5.76562 12 5.4375V3.5625C12 3.28125 12.2344 3 12.5625 3H14.4375C14.7188 3 15 3.28125 15 3.5625V5.4375Z" fill="#FF4B96"/>
</svg>
