        <svg
          width="21"
          height="24"
          viewBox="0 0 21 24"
          fill="none"
          xmlns="http://www.w3.org/2000/svg"
        >
          <path
            d="M10.5 12C13.7812 12 16.5 9.32812 16.5 6C16.5 2.71875 13.7812 0 10.5 0C7.17188 0 4.5 2.71875 4.5 6C4.5 9.32812 7.17188 12 10.5 12ZM14.6719 13.5H13.875C12.8438 14.0156 11.7188 14.25 10.5 14.25C9.28125 14.25 8.10938 14.0156 7.07812 13.5H6.28125C2.8125 13.5 0 16.3594 0 19.8281V21.75C0 23.0156 0.984375 24 2.25 24H18.75C19.9688 24 21 23.0156 21 21.75V19.8281C21 16.3594 18.1406 13.5 14.6719 13.5Z"
            fill="#FF4B96"
          />
        </svg>