        <svg
          width="25"
          height="25"
          viewBox="0 0 25 25"
          fill="none"
          xmlns="http://www.w3.org/2000/svg"
        >
          <path
            d="M24.1719 20.7656L19.4844 16.0781C19.25 15.8906 18.9688 15.75 18.6875 15.75H17.9375C19.2031 14.1094 20 12.0469 20 9.75C20 4.40625 15.5938 0 10.25 0C4.85938 0 0.5 4.40625 0.5 9.75C0.5 15.1406 4.85938 19.5 10.25 19.5C12.5 19.5 14.5625 18.75 16.25 17.4375V18.2344C16.25 18.5156 16.3438 18.7969 16.5781 19.0312L21.2188 23.6719C21.6875 24.1406 22.3906 24.1406 22.8125 23.6719L24.125 22.3594C24.5938 21.9375 24.5938 21.2344 24.1719 20.7656ZM10.25 15.75C6.92188 15.75 4.25 13.0781 4.25 9.75C4.25 6.46875 6.92188 3.75 10.25 3.75C13.5312 3.75 16.25 6.46875 16.25 9.75C16.25 13.0781 13.5312 15.75 10.25 15.75Z"
            fill="#FF4B96"
          />
        </svg>