<svg width="18" height="15" viewBox="0 0 18 15" fill="none" xmlns="http://www.w3.org/2000/svg">
<path d="M16.8438 6H13.125V1.40625C13.125 1.05078 12.8242 0.75 12.4688 0.75H8.53125C8.14844 0.75 7.875 1.05078 7.875 1.40625V3.375H6.125V1.1875C6.125 0.96875 5.90625 0.75 5.6875 0.75H5.25C5.00391 0.75 4.8125 0.96875 4.8125 1.1875V3.375H3.0625V1.1875C3.0625 0.96875 2.84375 0.75 2.625 0.75H2.1875C1.94141 0.75 1.75 0.96875 1.75 1.1875V3.375H0.65625C0.273438 3.375 0 3.67578 0 4.03125V13.875C0 14.3672 0.382812 14.75 0.875 14.75H16.625C17.0898 14.75 17.5 14.3672 17.5 13.875V6.65625C17.5 6.30078 17.1992 6 16.8438 6ZM3.5 11.7969C3.5 11.9883 3.33594 12.125 3.17188 12.125H2.07812C1.88672 12.125 1.75 11.9883 1.75 11.7969V10.7031C1.75 10.5391 1.88672 10.375 2.07812 10.375H3.17188C3.33594 10.375 3.5 10.5391 3.5 10.7031V11.7969ZM3.5 9.17188C3.5 9.36328 3.33594 9.5 3.17188 9.5H2.07812C1.88672 9.5 1.75 9.36328 1.75 9.17188V8.07812C1.75 7.91406 1.88672 7.75 2.07812 7.75H3.17188C3.33594 7.75 3.5 7.91406 3.5 8.07812V9.17188ZM3.5 6.54688C3.5 6.73828 3.33594 6.875 3.17188 6.875H2.07812C1.88672 6.875 1.75 6.73828 1.75 6.54688V5.45312C1.75 5.28906 1.88672 5.125 2.07812 5.125H3.17188C3.33594 5.125 3.5 5.28906 3.5 5.45312V6.54688ZM7 11.7969C7 11.9883 6.83594 12.125 6.67188 12.125H5.57812C5.38672 12.125 5.25 11.9883 5.25 11.7969V10.7031C5.25 10.5391 5.38672 10.375 5.57812 10.375H6.67188C6.83594 10.375 7 10.5391 7 10.7031V11.7969ZM7 9.17188C7 9.36328 6.83594 9.5 6.67188 9.5H5.57812C5.38672 9.5 5.25 9.36328 5.25 9.17188V8.07812C5.25 7.91406 5.38672 7.75 5.57812 7.75H6.67188C6.83594 7.75 7 7.91406 7 8.07812V9.17188ZM7 6.54688C7 6.73828 6.83594 6.875 6.67188 6.875H5.57812C5.38672 6.875 5.25 6.73828 5.25 6.54688V5.45312C5.25 5.28906 5.38672 5.125 5.57812 5.125H6.67188C6.83594 5.125 7 5.28906 7 5.45312V6.54688ZM11.375 9.17188C11.375 9.36328 11.2109 9.5 11.0469 9.5H9.95312C9.76172 9.5 9.625 9.36328 9.625 9.17188V8.07812C9.625 7.91406 9.76172 7.75 9.95312 7.75H11.0469C11.2109 7.75 11.375 7.91406 11.375 8.07812V9.17188ZM11.375 6.54688C11.375 6.73828 11.2109 6.875 11.0469 6.875H9.95312C9.76172 6.875 9.625 6.73828 9.625 6.54688V5.45312C9.625 5.28906 9.76172 5.125 9.95312 5.125H11.0469C11.2109 5.125 11.375 5.28906 11.375 5.45312V6.54688ZM11.375 3.92188C11.375 4.11328 11.2109 4.25 11.0469 4.25H9.95312C9.76172 4.25 9.625 4.11328 9.625 3.92188V2.82812C9.625 2.66406 9.76172 2.5 9.95312 2.5H11.0469C11.2109 2.5 11.375 2.66406 11.375 2.82812V3.92188ZM15.75 11.7969C15.75 11.9883 15.5859 12.125 15.4219 12.125H14.3281C14.1367 12.125 14 11.9883 14 11.7969V10.7031C14 10.5391 14.1367 10.375 14.3281 10.375H15.4219C15.5859 10.375 15.75 10.5391 15.75 10.7031V11.7969ZM15.75 9.17188C15.75 9.36328 15.5859 9.5 15.4219 9.5H14.3281C14.1367 9.5 14 9.36328 14 9.17188V8.07812C14 7.91406 14.1367 7.75 14.3281 7.75H15.4219C15.5859 7.75 15.75 7.91406 15.75 8.07812V9.17188Z" fill="#FF4B96"/>
</svg>
