<svg width="28" height="21" viewBox="0 0 28 21" fill="none" xmlns="http://www.w3.org/2000/svg">
<path d="M27.4531 6.94531C26.1953 7.92969 24.6094 9.13281 19.0312 13.1797C17.9375 14 15.9141 15.8047 14 15.8047C12.0312 15.8047 10.0625 14 8.91406 13.1797C3.33594 9.13281 1.75 7.92969 0.492188 6.94531C0.273438 6.78125 0 6.94531 0 7.21875V18.375C0 19.8516 1.14844 21 2.625 21H25.375C26.7969 21 28 19.8516 28 18.375V7.21875C28 6.94531 27.6719 6.78125 27.4531 6.94531ZM14 14C15.2578 14.0547 17.0625 12.4141 17.9922 11.7578C25.2656 6.50781 25.8125 6.01562 27.4531 4.70312C27.7812 4.48438 28 4.10156 28 3.66406V2.625C28 1.20312 26.7969 0 25.375 0H2.625C1.14844 0 0 1.20312 0 2.625V3.66406C0 4.10156 0.164062 4.48438 0.492188 4.70312C2.13281 6.01562 2.67969 6.50781 9.95312 11.7578C10.8828 12.4141 12.6875 14.0547 14 14Z" fill="white"/>
</svg>
